<?xml version="1.0" encoding="UTF-8" standalone="no"?>
<!-- Created with Inkscape (http://www.inkscape.org/) -->

<svg
   width="360"
   height="114"
   viewBox="0 0 95.249998 30.162501"
   version="1.1"
   id="svg5"
   inkscape:version="1.1 (c68e22c387, 2021-05-23)"
   sodipodi:docname="puffmixsized.svg"
   xmlns:inkscape="http://www.inkscape.org/namespaces/inkscape"
   xmlns:sodipodi="http://sodipodi.sourceforge.net/DTD/sodipodi-0.dtd"
   xmlns:xlink="http://www.w3.org/1999/xlink"
   xmlns="http://www.w3.org/2000/svg"
   xmlns:svg="http://www.w3.org/2000/svg">
  <sodipodi:namedview
     id="namedview7"
     pagecolor="#505050"
     bordercolor="#eeeeee"
     borderopacity="1"
     inkscape:pageshadow="0"
     inkscape:pageopacity="0"
     inkscape:pagecheckerboard="0"
     inkscape:document-units="mm"
     showgrid="false"
     units="px"
     width="360px"
     showguides="true"
     inkscape:guide-bbox="true"
     inkscape:zoom="1.4948513"
     inkscape:cx="153.86146"
     inkscape:cy="83.620358"
     inkscape:window-width="1920"
     inkscape:window-height="1011"
     inkscape:window-x="0"
     inkscape:window-y="32"
     inkscape:window-maximized="1"
     inkscape:current-layer="layer1" />
  <defs
     id="defs2">
    <linearGradient
       inkscape:collect="always"
       id="linearGradient37217">
      <stop
         style="stop-color:#00c4ff;stop-opacity:1"
         offset="0"
         id="stop37213" />
      <stop
         style="stop-color:#007bff;stop-opacity:1"
         offset="1"
         id="stop37215" />
    </linearGradient>
    <linearGradient
       inkscape:collect="always"
       id="linearGradient30701">
      <stop
         style="stop-color:#0000ff;stop-opacity:1;"
         offset="0"
         id="stop30697" />
      <stop
         style="stop-color:#0000ff;stop-opacity:0;"
         offset="1"
         id="stop30699" />
    </linearGradient>
    <linearGradient
       inkscape:collect="always"
       xlink:href="#linearGradient30701"
       id="linearGradient30703"
       x1="0"
       y1="0"
       x2="1"
       y2="0"
       gradientUnits="userSpaceOnUse"
       gradientTransform="translate(-1.5875,2.6458334)" />
    <linearGradient
       inkscape:collect="always"
       xlink:href="#linearGradient37217"
       id="linearGradient30705"
       x1="82.122284"
       y1="168.0092"
       x2="126.97177"
       y2="168.0092"
       gradientUnits="userSpaceOnUse" />
    <linearGradient
       inkscape:collect="always"
       xlink:href="#linearGradient37217"
       id="linearGradient1013"
       gradientUnits="userSpaceOnUse"
       x1="82.122284"
       y1="168.0092"
       x2="126.97177"
       y2="168.0092" />
    <linearGradient
       inkscape:collect="always"
       xlink:href="#linearGradient37217"
       id="linearGradient1015"
       gradientUnits="userSpaceOnUse"
       x1="82.122284"
       y1="168.0092"
       x2="126.97177"
       y2="168.0092" />
    <linearGradient
       inkscape:collect="always"
       xlink:href="#linearGradient37217"
       id="linearGradient1017"
       gradientUnits="userSpaceOnUse"
       x1="82.122284"
       y1="168.0092"
       x2="126.97177"
       y2="168.0092" />
    <linearGradient
       inkscape:collect="always"
       xlink:href="#linearGradient37217"
       id="linearGradient1019"
       gradientUnits="userSpaceOnUse"
       x1="82.122284"
       y1="168.0092"
       x2="126.97177"
       y2="168.0092" />
  </defs>
  <g
     inkscape:label="Layer 1"
     inkscape:groupmode="layer"
     id="layer1">
    <g
       id="g8414"
       transform="matrix(0.35104838,0,0,0.35104838,-67.312933,-45.961794)">
      <path
         style="fill:#fdfdfd;stroke-width:0.264583"
         d="m 203.87271,156.64032 c 0,0 3.90021,-8.65703 7.24656,-13.05889 2.13331,-2.8062 -0.5119,-10.56265 -0.5119,-10.56265 l 6.32773,3.90226 c 0,0 5.81324,-3.0928 8.74475,-2.36764 7.14574,1.76765 10.46131,6.58514 13.38957,11.3795 4.34755,7.11813 5.04145,9.7799 4.37731,14.75562 -0.41415,3.10284 -6.42319,6.8509 -6.42319,6.8509 l 7.41742,10.59297 3.55522,9.09501 0.0345,6.65772 -10.2723,12.00413 -20.49924,1.74405 -6.79013,-1.45258 -8.14293,-23.08246 10.31699,-14.61023 c 0,0 -5.18898,-2.73164 -6.7996,-5.05053 -1.34574,-1.93753 -1.97075,-6.79718 -1.97075,-6.79718 z"
         id="path3595"
         sodipodi:nodetypes="csccssscccccccccac" />
      <path
         style="fill:#f5d401;stroke-width:0.264583"
         d="m 224.06398,215.43055 c -2.26576,-0.60095 -3.92784,-1.74808 -4.7531,-3.2805 -0.48841,-0.90693 -0.51707,-0.91841 -2.765,-1.10743 -1.24932,-0.10505 -2.74773,-0.33308 -3.32982,-0.50673 -0.90096,-0.26877 -1.50995,-0.22461 -4.0955,0.29698 -2.82176,0.56924 -3.11263,0.68656 -4.10104,1.65411 -1.93583,1.89497 -3.76542,2.27741 -6.32092,1.32127 -2.35033,-0.87937 -4.0703,-3.07037 -5.08727,-6.48048 -0.71586,-2.40041 -0.64395,-7.3732 0.13939,-9.63923 1.00252,-2.90006 2.32175,-4.6988 4.471,-6.09607 0.53041,-0.34483 0.57489,-0.49328 0.33603,-1.12153 -0.79284,-2.08532 -0.56157,-6.62793 0.48971,-9.61902 0.8295,-2.36007 2.85413,-5.34631 5.29544,-7.81056 2.56979,-2.59393 4.47651,-3.7952 6.73458,-4.24292 l 1.56558,-0.31041 -1.39744,-0.61673 c -0.7686,-0.3392 -2.14567,-1.15065 -3.06016,-1.80322 -3.56203,-2.54181 -5.0192,-5.70283 -4.36152,-9.46137 0.45489,-2.59964 4.30704,-10.00046 6.38438,-12.26581 0.50314,-0.54867 0.49718,-0.57212 -0.73211,-2.88295 -1.06114,-1.99473 -1.25686,-2.60223 -1.36096,-4.22426 -0.10073,-1.56972 -0.0249,-2.08401 0.4425,-3.00015 1.57522,-3.08769 4.97059,-2.62647 7.3953,1.00457 1.01134,1.51449 1.01164,1.51469 1.75673,1.1243 1.2034,-0.63053 4.38883,-1.66779 5.91111,-1.92481 0.86214,-0.14557 1.94037,-0.13946 2.77812,0.0157 1.75129,0.32443 4.75012,1.79484 6.20649,3.04322 l 1.13318,0.97135 1.28083,-1.19807 c 2.21038,-2.06755 4.5853,-2.28785 6.28971,-0.58344 0.77258,0.77258 0.87872,1.04688 0.87872,2.27098 0,1.99859 -0.73956,4.08084 -1.92958,5.43277 l -1.02187,1.1609 0.9184,1.5236 c 2.11999,3.51701 3.68741,8.33759 3.72472,11.45535 0.0209,1.74743 -0.0839,2.21323 -0.84708,3.76339 -0.91073,1.84997 -2.01638,2.93911 -4.34696,4.28206 -1.96789,1.13396 -2.05568,0.64704 -0.1117,-0.61951 3.20187,-2.0861 4.42596,-3.88678 4.61417,-6.7876 0.20151,-3.10577 -1.4386,-8.27034 -3.89476,-12.26427 -2.04218,-3.32075 -5.6205,-7.82292 -7.25486,-9.1279 -2.83453,-2.26328 -6.09757,-3.33671 -8.52889,-2.80571 -3.66971,0.80145 -6.91715,2.27343 -8.02329,3.63675 -5.22428,6.43892 -6.77386,8.61853 -8.72978,12.27917 -1.84116,3.44583 -2.40394,5.19951 -2.40394,7.49091 0,2.43735 0.79047,4.09078 2.881,6.02625 1.83993,1.70345 4.294,3.02198 7.83463,4.20943 2.6098,0.87527 2.70708,0.88695 7.14375,0.85826 4.66737,-0.0302 7.28932,-0.36262 12.00039,-1.52149 2.37164,-0.5834 2.54112,-0.59139 4.0435,-0.19063 2.86176,0.76338 6.06578,3.98309 8.03229,8.07162 0.50068,1.04096 1.23545,3.19762 1.63282,4.79258 0.64238,2.57836 0.7219,3.38402 0.71713,7.26555 -0.008,6.35458 -1.0313,10.7267 -3.49519,14.93068 -1.47729,2.52061 -3.03854,3.88856 -6.15659,5.39431 -1.55001,0.74853 -3.90674,2.20403 -5.39727,3.33333 -4.44053,3.36435 -7.21579,4.49584 -9.525,3.88337 z m -6.86232,-20.44864 c 0.67581,-2.03469 2.36382,-3.58987 5.03891,-4.64241 2.64875,-1.04217 3.58301,-1.25352 7.87108,-1.78059 9.11647,-1.12054 13.37643,-4.69925 12.49929,-10.5004 -0.28888,-1.91056 -0.44558,-1.98429 -1.93817,-0.91198 -1.85903,1.33558 -3.93756,2.1963 -7.46969,3.0932 -8.14366,2.06789 -15.48495,1.9705 -24.32778,-0.32275 -1.91583,-0.49684 -3.11007,-0.69041 -3.27038,-0.5301 -0.43866,0.43866 -0.97939,3.27217 -0.98368,5.1547 -0.007,3.04042 0.63183,3.87041 3.67153,4.77066 3.37574,0.99977 4.77316,2.56084 4.78519,5.34554 0.003,0.73974 0.0852,1.42435 0.1822,1.52136 0.097,0.097 0.92088,0.17639 1.83082,0.17639 h 1.65443 z m 28.29059,-0.28601 c 2.06253,-0.83325 2.1182,-0.87953 2.29986,-1.91225 0.10239,-0.58208 0.1902,-2.12989 0.19513,-3.43958 l 0.009,-2.38125 -0.61569,1.49688 c -0.92824,2.25673 -1.87486,3.74276 -3.5076,5.50631 -1.74888,1.88901 -1.513,1.99532 1.61933,0.72989 z m -31.61473,-30.6402 c -0.52273,-0.18374 -0.45188,-0.20316 0.33777,-0.0926 0.84534,0.11835 1.11101,0.0258 1.72498,-0.60102 0.65293,-0.66658 0.71611,-0.89388 0.62973,-2.26558 -0.094,-1.49228 -0.12121,-1.53944 -1.28267,-2.2201 -0.65267,-0.38249 -1.29131,-0.97066 -1.41921,-1.30704 l -0.23253,-0.6116 -1.53268,1.00847 c -1.45836,0.95957 -2.94118,1.61223 -3.66294,1.61223 -0.44887,0 -0.91245,-1.41737 -0.91245,-2.78974 0,-1.33081 0.88681,-4.37184 1.65547,-5.67693 0.73902,-1.25474 1.76874,-2.35135 2.63087,-2.80175 1.54369,-0.80646 4.44491,-0.24403 4.44491,0.86169 0,0.31268 -0.11092,0.27546 -0.46302,-0.15534 -0.68414,-0.83707 -2.1351,-0.97792 -3.56379,-0.34594 -3.31726,1.46738 -3.72076,5.73671 -0.65255,6.90448 1.165,0.4434 2.00103,0.2597 2.89737,-0.63664 0.55158,-0.55158 0.65739,-0.58753 0.55287,-0.18784 -0.11279,0.43131 0.11738,0.53247 1.8067,0.79401 1.06478,0.16484 2.44084,0.23144 3.05791,0.14798 1.38405,-0.18718 1.92076,0.20002 1.92076,1.38567 0,1.11241 -0.77131,1.74447 -3.05702,2.50511 l -1.70548,0.56755 v 1.14553 c 0,0.96472 0.13409,1.25836 0.84955,1.86038 0.76809,0.64631 0.98592,0.69882 2.27175,0.5477 0.78221,-0.0919 1.78019,-0.35228 2.21775,-0.57855 0.43755,-0.22627 0.86174,-0.3452 0.94264,-0.26429 0.34315,0.34314 -2.25847,1.20352 -3.65588,1.20902 -1.23819,0.005 -1.57571,-0.10114 -2.10056,-0.65982 l -0.62533,-0.66563 -0.7288,0.79792 c -0.74842,0.81941 -1.1955,0.91711 -2.34612,0.51268 z m 12.60366,-3.95232 c -1.76348,-1.11836 -3.79683,-3.07987 -4.5826,-4.42068 -1.46936,-2.50727 -0.56583,-6.02267 1.84832,-7.19134 1.32672,-0.64225 1.71889,-0.67109 3.17866,-0.23373 1.14499,0.34304 3.09769,1.99961 3.08217,2.61474 -0.005,0.20444 -0.16496,0.0911 -0.35512,-0.25179 -0.46956,-0.84678 -2.32342,-2.054 -3.49039,-2.27293 -1.45562,-0.27307 -3.22442,0.70855 -4.02724,2.23496 -0.49676,0.94449 -0.60547,1.49504 -0.52588,2.66314 0.19213,2.81975 1.79166,3.99938 4.62533,3.41111 2.07192,-0.43012 3.1561,-1.5086 3.40533,-3.3874 0.0995,-0.75016 0.26827,-1.36393 0.375,-1.36393 0.10674,0 0.26798,0.62886 0.35832,1.39747 0.17273,1.46964 -0.10377,3.74804 -0.61693,5.08365 -0.3438,0.89481 -1.5145,2.51471 -1.81738,2.51471 -0.10962,0 -0.76554,-0.35909 -1.45759,-0.79798 z m -1.43824,-6.92785 c -0.45008,-0.45008 -0.39333,-1.42096 0.11264,-1.92692 0.57811,-0.57812 1.84661,-0.4342 1.74026,0.19744 -0.0432,0.25661 0.10562,0.53724 0.33073,0.62362 0.51985,0.19948 0.51802,0.48307 -0.006,1.00759 -0.49204,0.49203 -1.72762,0.5478 -2.17715,0.0983 z m -12.1576,-0.3869 c -0.58556,-0.23627 -0.38881,-1.6266 0.29344,-2.07363 0.65153,-0.42689 1.61534,-0.28063 1.31826,0.20006 -0.0942,0.15235 0.035,0.42777 0.28702,0.61205 0.36945,0.27015 0.4011,0.44175 0.1634,0.8859 -0.28418,0.531 -1.24385,0.7058 -2.06212,0.37562 z"
         id="path3591" />
      <path
         style="fill:#fdb50b;stroke-width:0.264583"
         d="m 224.06398,215.43055 c -2.26576,-0.60095 -3.92784,-1.74808 -4.7531,-3.2805 -0.48841,-0.90693 -0.51707,-0.91841 -2.765,-1.10743 -1.24932,-0.10505 -2.74773,-0.33308 -3.32982,-0.50673 -0.90096,-0.26877 -1.50995,-0.22461 -4.0955,0.29698 -2.82176,0.56924 -3.11263,0.68656 -4.10104,1.65411 -1.93583,1.89497 -3.76542,2.27741 -6.32092,1.32127 -2.35033,-0.87937 -4.0703,-3.07037 -5.08727,-6.48048 -0.71586,-2.40041 -0.64395,-7.3732 0.13939,-9.63923 1.00252,-2.90006 2.32175,-4.6988 4.471,-6.09607 0.53041,-0.34483 0.57489,-0.49328 0.33603,-1.12153 -0.79284,-2.08532 -0.56157,-6.62793 0.48971,-9.61902 0.8295,-2.36007 2.85413,-5.34631 5.29544,-7.81056 2.56979,-2.59393 4.47651,-3.7952 6.73458,-4.24292 l 1.56558,-0.31041 -1.39744,-0.61673 c -0.7686,-0.3392 -2.14567,-1.15065 -3.06016,-1.80322 -3.56203,-2.54181 -5.0192,-5.70283 -4.36152,-9.46137 0.45489,-2.59964 4.30704,-10.00046 6.38438,-12.26581 0.50314,-0.54867 0.49718,-0.57212 -0.73211,-2.88295 -1.06114,-1.99473 -1.25686,-2.60223 -1.36096,-4.22426 -0.10073,-1.56972 -0.0249,-2.08401 0.4425,-3.00015 1.57522,-3.08769 4.97059,-2.62647 7.3953,1.00457 1.01134,1.51449 1.01164,1.51469 1.75673,1.1243 1.2034,-0.63053 4.38883,-1.66779 5.91111,-1.92481 0.86214,-0.14557 1.94037,-0.13946 2.77812,0.0157 1.75129,0.32443 4.75012,1.79484 6.20649,3.04322 l 1.13318,0.97135 1.28083,-1.19807 c 2.21038,-2.06755 4.5853,-2.28785 6.28971,-0.58344 0.77258,0.77258 0.87872,1.04688 0.87872,2.27098 0,1.99859 -0.73956,4.08084 -1.92958,5.43277 l -1.02187,1.1609 0.9184,1.5236 c 2.11999,3.51701 3.68741,8.33759 3.72472,11.45535 0.0209,1.74743 -0.0839,2.21323 -0.84708,3.76339 -0.91073,1.84997 -2.01638,2.93911 -4.34696,4.28206 -1.96789,1.13396 -2.05568,0.64704 -0.1117,-0.61951 3.20187,-2.0861 4.42596,-3.88678 4.61417,-6.7876 0.21128,-3.25635 -1.41365,-8.19868 -4.18188,-12.71948 -1.40648,-2.29692 -1.57464,-2.81415 -0.87485,-2.69087 0.64342,0.11336 1.42162,-1.37644 1.59463,-3.0528 0.12758,-1.23612 0.0683,-1.51208 -0.4321,-2.01251 -0.63054,-0.63054 -1.54921,-0.58308 -2.99288,0.15464 -0.40018,0.20449 -0.7276,0.2603 -0.7276,0.12402 0,-0.29863 2.11021,-1.35331 2.70773,-1.35331 0.77848,0 1.27719,0.32215 1.66768,1.07726 0.63932,1.23631 0.48553,2.91491 -0.42608,4.65056 l -0.81316,1.54822 0.79396,-0.75871 c 1.06739,-1.01999 1.91195,-3.07289 1.97296,-4.79572 0.0414,-1.16915 -0.0599,-1.52978 -0.5876,-2.09224 -1.37778,-1.46848 -3.62634,-1.15313 -5.65761,0.79346 -1.08965,1.04422 -1.22101,1.27691 -0.93318,1.653 0.18424,0.24074 -0.19691,-0.0738 -0.84699,-0.69906 -2.75684,-2.65141 -5.78571,-4.09716 -8.59334,-4.10181 -1.60135,-0.003 -5.91784,1.24355 -7.20059,2.07886 -0.90185,0.58727 -1.25253,0.4677 -1.87464,-0.6392 -0.7743,-1.37767 -2.70297,-3.11331 -3.70384,-3.33314 -0.9251,-0.20319 -1.49262,0.0368 -2.41253,1.02032 -0.74323,0.79459 -1.03115,2.89865 -0.601,4.39195 0.2639,0.91614 0.26701,0.91092 0.29061,-0.48834 0.0387,-2.29094 1.15126,-3.54676 2.89733,-3.27026 0.65792,0.10418 3.10751,2.36373 2.84602,2.62523 -0.0838,0.0838 -0.68797,-0.34125 -1.34254,-0.94461 -2.15031,-1.98209 -3.72324,-1.28453 -3.70581,1.64345 0.0118,1.98498 1.14044,4.76833 1.82672,4.50498 0.64798,-0.24865 0.49292,0.12454 -0.6021,1.44908 -2.33107,2.81969 -5.38098,8.07351 -6.39105,11.0093 -0.78428,2.27957 -0.72577,4.93842 0.14724,6.69032 1.41185,2.8332 4.89883,5.25895 10.0366,6.98204 2.6098,0.87527 2.70708,0.88695 7.14375,0.85826 4.66737,-0.0302 7.28932,-0.36262 12.00039,-1.52149 2.37164,-0.5834 2.54112,-0.59139 4.0435,-0.19063 2.86176,0.76338 6.06578,3.98309 8.03229,8.07162 0.50068,1.04096 1.23545,3.19762 1.63282,4.79258 0.64238,2.57836 0.7219,3.38402 0.71713,7.26555 -0.008,6.35458 -1.0313,10.7267 -3.49519,14.93068 -1.47729,2.52061 -3.03854,3.88856 -6.15659,5.39431 -1.55001,0.74853 -3.90674,2.20403 -5.39727,3.33333 -4.44053,3.36435 -7.21579,4.49584 -9.525,3.88337 z m -6.86232,-20.44864 c 0.67581,-2.03469 2.36382,-3.58987 5.03891,-4.64241 2.64875,-1.04217 3.58301,-1.25352 7.87108,-1.78059 9.11647,-1.12054 13.37643,-4.69925 12.49929,-10.5004 -0.28888,-1.91056 -0.44558,-1.98429 -1.93817,-0.91198 -1.85903,1.33558 -3.93756,2.1963 -7.46969,3.0932 -8.14366,2.06789 -15.48495,1.9705 -24.32778,-0.32275 -1.91583,-0.49684 -3.11007,-0.69041 -3.27038,-0.5301 -0.43866,0.43866 -0.97939,3.27217 -0.98368,5.1547 -0.007,3.04042 0.63183,3.87041 3.67153,4.77066 3.37574,0.99977 4.77316,2.56084 4.78519,5.34554 0.003,0.73974 0.0852,1.42435 0.1822,1.52136 0.097,0.097 0.92088,0.17639 1.83082,0.17639 h 1.65443 z m 28.29059,-0.28601 c 2.06253,-0.83325 2.1182,-0.87953 2.29986,-1.91225 0.10239,-0.58208 0.1902,-2.12989 0.19513,-3.43958 l 0.009,-2.38125 -0.61569,1.49688 c -0.92824,2.25673 -1.87486,3.74276 -3.5076,5.50631 -1.74888,1.88901 -1.513,1.99532 1.61933,0.72989 z m -31.61473,-30.6402 c -0.52273,-0.18374 -0.45188,-0.20316 0.33777,-0.0926 0.84534,0.11835 1.11101,0.0258 1.72498,-0.60102 0.65293,-0.66658 0.71611,-0.89388 0.62973,-2.26558 -0.094,-1.49228 -0.12121,-1.53944 -1.28267,-2.2201 -0.65267,-0.38249 -1.29131,-0.97066 -1.41921,-1.30704 l -0.23253,-0.6116 -1.53268,1.00847 c -1.45836,0.95957 -2.94118,1.61223 -3.66294,1.61223 -0.44887,0 -0.91245,-1.41737 -0.91245,-2.78974 0,-1.33081 0.88681,-4.37184 1.65547,-5.67693 0.73902,-1.25474 1.76874,-2.35135 2.63087,-2.80175 1.54369,-0.80646 4.44491,-0.24403 4.44491,0.86169 0,0.31268 -0.11092,0.27546 -0.46302,-0.15534 -0.68414,-0.83707 -2.1351,-0.97792 -3.56379,-0.34594 -3.31726,1.46738 -3.72076,5.73671 -0.65255,6.90448 1.165,0.4434 2.00103,0.2597 2.89737,-0.63664 0.55158,-0.55158 0.65739,-0.58753 0.55287,-0.18784 -0.11279,0.43131 0.11738,0.53247 1.8067,0.79401 1.06478,0.16484 2.44084,0.23144 3.05791,0.14798 1.38405,-0.18718 1.92076,0.20002 1.92076,1.38567 0,1.11241 -0.77131,1.74447 -3.05702,2.50511 l -1.70548,0.56755 v 1.14553 c 0,0.96472 0.13409,1.25836 0.84955,1.86038 0.76809,0.64631 0.98592,0.69882 2.27175,0.5477 0.78221,-0.0919 1.78019,-0.35228 2.21775,-0.57855 0.43755,-0.22627 0.86174,-0.3452 0.94264,-0.26429 0.34315,0.34314 -2.25847,1.20352 -3.65588,1.20902 -1.23819,0.005 -1.57571,-0.10114 -2.10056,-0.65982 l -0.62533,-0.66563 -0.7288,0.79792 c -0.74842,0.81941 -1.1955,0.91711 -2.34612,0.51268 z m 7.2372,-6.03101 c 0.48946,-0.40791 0.58447,-1.49808 0.15376,-1.76428 -0.48868,-0.30201 -6.43961,-0.35911 -6.79564,-0.0652 -0.61658,0.50899 -0.34506,1.13087 1.02173,2.34022 l 1.36297,1.20596 1.91073,-0.67679 c 1.0509,-0.37223 2.1068,-0.8402 2.34645,-1.03992 z m 5.36646,2.07869 c -1.76348,-1.11836 -3.79683,-3.07987 -4.5826,-4.42068 -1.46936,-2.50727 -0.56583,-6.02267 1.84832,-7.19134 1.32672,-0.64225 1.71889,-0.67109 3.17866,-0.23373 1.14499,0.34304 3.09769,1.99961 3.08217,2.61474 -0.005,0.20444 -0.16496,0.0911 -0.35512,-0.25179 -0.46956,-0.84678 -2.32342,-2.054 -3.49039,-2.27293 -1.45562,-0.27307 -3.22442,0.70855 -4.02724,2.23496 -0.49676,0.94449 -0.60547,1.49504 -0.52588,2.66314 0.19213,2.81975 1.79166,3.99938 4.62533,3.41111 2.07192,-0.43012 3.1561,-1.5086 3.40533,-3.3874 0.0995,-0.75016 0.26827,-1.36393 0.375,-1.36393 0.10674,0 0.26798,0.62886 0.35832,1.39747 0.17273,1.46964 -0.10377,3.74804 -0.61693,5.08365 -0.3438,0.89481 -1.5145,2.51471 -1.81738,2.51471 -0.10962,0 -0.76554,-0.35909 -1.45759,-0.79798 z m -1.43824,-6.92785 c -0.45008,-0.45008 -0.39333,-1.42096 0.11264,-1.92692 0.57811,-0.57812 1.84661,-0.4342 1.74026,0.19744 -0.0432,0.25661 0.10562,0.53724 0.33073,0.62362 0.51985,0.19948 0.51802,0.48307 -0.006,1.00759 -0.49204,0.49203 -1.72762,0.5478 -2.17715,0.0983 z m -12.1576,-0.3869 c -0.58556,-0.23627 -0.38881,-1.6266 0.29344,-2.07363 0.65153,-0.42689 1.61534,-0.28063 1.31826,0.20006 -0.0942,0.15235 0.035,0.42777 0.28702,0.61205 0.36945,0.27015 0.4011,0.44175 0.1634,0.8859 -0.28418,0.531 -1.24385,0.7058 -2.06212,0.37562 z"
         id="path3589" />
      <path
         style="fill:#fd8a00;stroke-width:0.264583"
         d="m 224.06398,215.43055 c -2.26576,-0.60095 -3.92784,-1.74808 -4.7531,-3.2805 -0.48841,-0.90693 -0.51707,-0.91841 -2.765,-1.10743 -1.24932,-0.10505 -2.74773,-0.33308 -3.32982,-0.50673 -0.90096,-0.26877 -1.50995,-0.22461 -4.0955,0.29698 -2.82176,0.56924 -3.11263,0.68656 -4.10104,1.65411 -1.93583,1.89497 -3.76542,2.27741 -6.32092,1.32127 -2.35033,-0.87937 -4.0703,-3.07037 -5.08727,-6.48048 -0.71586,-2.40041 -0.64395,-7.3732 0.13939,-9.63923 1.00252,-2.90006 2.32175,-4.6988 4.471,-6.09607 0.53041,-0.34483 0.57489,-0.49328 0.33603,-1.12153 -0.79284,-2.08532 -0.56157,-6.62793 0.48971,-9.61902 0.8295,-2.36007 2.85413,-5.34631 5.29544,-7.81056 2.56979,-2.59393 4.47651,-3.7952 6.73458,-4.24292 l 1.56558,-0.31041 -1.39744,-0.61673 c -0.7686,-0.3392 -2.14567,-1.15065 -3.06016,-1.80322 -3.56203,-2.54181 -5.0192,-5.70283 -4.36152,-9.46137 0.45489,-2.59964 4.30704,-10.00046 6.38438,-12.26581 0.50314,-0.54867 0.49718,-0.57212 -0.73211,-2.88295 -1.06114,-1.99473 -1.25686,-2.60223 -1.36096,-4.22426 -0.10073,-1.56972 -0.0249,-2.08401 0.4425,-3.00015 1.57522,-3.08769 4.97059,-2.62647 7.3953,1.00457 1.01134,1.51449 1.01164,1.51469 1.75673,1.1243 1.2034,-0.63053 4.38883,-1.66779 5.91111,-1.92481 0.86214,-0.14557 1.94037,-0.13946 2.77812,0.0157 1.75129,0.32443 4.75012,1.79484 6.20649,3.04322 l 1.13318,0.97135 1.28083,-1.19807 c 2.21038,-2.06755 4.5853,-2.28785 6.28971,-0.58344 0.77258,0.77258 0.87872,1.04688 0.87872,2.27098 0,1.99859 -0.73956,4.08084 -1.92958,5.43277 l -1.02187,1.1609 0.9184,1.5236 c 2.11999,3.51701 3.68741,8.33759 3.72472,11.45535 0.0209,1.74743 -0.0839,2.21323 -0.84708,3.76339 -0.91073,1.84997 -2.01638,2.93911 -4.34696,4.28206 -1.96789,1.13396 -2.05568,0.64704 -0.1117,-0.61951 3.20187,-2.0861 4.42596,-3.88678 4.61417,-6.7876 0.21128,-3.25635 -1.41365,-8.19868 -4.18188,-12.71948 -1.42093,-2.32051 -1.53551,-2.62163 -0.90566,-2.37993 0.30066,0.11537 0.5831,-0.21328 1.05575,-1.22846 0.7397,-1.58881 0.83634,-3.25179 0.23856,-4.10524 -0.46684,-0.66651 -1.13281,-0.72175 -2.56004,-0.21232 -1.39058,0.49634 -0.98039,0.0274 0.45579,-0.52108 1.10855,-0.42336 1.22505,-0.4238 1.86116,-0.007 0.80602,0.52812 1.18628,1.41534 1.17833,2.74928 -0.006,1.01482 -0.78272,3.02594 -1.28956,3.33918 -0.16067,0.0993 -0.29213,0.31594 -0.29213,0.48142 0,0.16548 0.42018,-0.10639 0.93374,-0.60415 0.64129,-0.62156 1.09708,-1.43382 1.45521,-2.59331 0.7496,-2.42692 0.68802,-3.10641 -0.37812,-4.17255 -0.75072,-0.75072 -1.09242,-0.89959 -2.06487,-0.89959 -1.2185,0 -2.99547,0.91751 -4.02187,2.07663 -0.27721,0.31306 -0.66585,0.56921 -0.86363,0.56921 -0.19778,0 -1.04051,-0.5546 -1.87272,-1.23245 -1.73702,-1.41482 -3.5262,-2.27351 -5.6602,-2.71653 -1.21632,-0.25251 -1.80628,-0.23659 -3.19863,0.0863 -1.91425,0.44395 -5.22974,1.6389 -5.61434,2.0235 -0.53793,0.53793 -1.10958,0.1673 -2.03913,-1.32204 -1.8839,-3.01846 -4.54743,-3.72997 -5.99443,-1.6013 -0.55777,0.82052 -0.61693,1.15274 -0.51921,2.91556 0.15318,2.76321 0.60174,3.4522 0.60174,0.92426 0,-1.69271 0.0828,-2.0319 0.64143,-2.62716 1.11266,-1.18563 3.08736,-0.74112 4.29206,0.96616 l 0.60958,0.86388 -0.91945,-0.76736 c -0.5057,-0.42206 -1.26983,-0.91506 -1.69806,-1.09557 -2.34497,-0.98846 -3.2798,2.18698 -1.70934,5.8063 0.49467,1.14003 0.73867,1.43378 1.09888,1.32289 0.68604,-0.21119 0.57382,0.0825 -0.55164,1.4439 -2.33107,2.81969 -5.38098,8.07351 -6.39105,11.0093 -0.78428,2.27957 -0.72577,4.93842 0.14724,6.69032 1.94656,3.90624 8.95363,7.59447 15.06368,7.92889 4.27657,0.23407 11.28053,-0.63729 15.37653,-1.913 2.48012,-0.77244 6.03603,1.14308 8.69952,4.6863 1.71016,2.27502 2.91424,4.93716 3.74962,8.29019 0.64238,2.57836 0.7219,3.38402 0.71713,7.26555 -0.008,6.35458 -1.0313,10.7267 -3.49519,14.93068 -1.47729,2.52061 -3.03854,3.88856 -6.15659,5.39431 -1.55001,0.74853 -3.90674,2.20403 -5.39727,3.33333 -4.44053,3.36435 -7.21579,4.49584 -9.525,3.88337 z m 1.28086,-2.42046 c 0.83369,-0.65578 1.13114,-1.67746 1.51461,-5.20245 0.56082,-5.15513 -0.52153,-9.43898 -2.60475,-10.3094 -1.37237,-0.57341 -2.58886,0.12877 -3.43859,1.98482 -0.5593,1.22169 -0.6805,1.95098 -0.78342,4.71435 -0.10418,2.79725 -0.0413,3.53398 0.43568,5.10434 0.61658,2.02994 1.56204,3.34521 2.78874,3.87953 1.09032,0.47491 1.28682,0.4588 2.08773,-0.17119 z m -24.21754,-2.10926 c 1.32904,-0.8103 1.62996,-1.88464 1.96151,-7.00308 0.26962,-4.16231 0.25456,-4.69127 -0.16483,-5.78943 -0.64398,-1.68624 -1.7369,-2.54654 -3.2351,-2.54654 -1.80012,0 -2.61747,0.55312 -3.22,2.17904 -0.80547,2.17357 -1.23931,6.46066 -0.85819,8.48049 0.42772,2.26683 1.49172,4.1702 2.65642,4.75204 1.1961,0.59752 1.78571,0.58257 2.86019,-0.0725 z m 16.07436,-15.91892 c 0.67581,-2.03469 2.36382,-3.58987 5.03891,-4.64241 2.64875,-1.04217 3.58301,-1.25352 7.87108,-1.78059 9.11647,-1.12054 13.37643,-4.69925 12.49929,-10.5004 -0.29334,-1.94005 -0.48214,-2.04856 -1.85226,-1.06461 -1.90479,1.36791 -4.37929,2.40108 -7.74554,3.23396 -4.49608,1.11242 -6.85839,1.40557 -11.19812,1.38964 -4.32886,-0.0159 -8.1202,-0.52071 -12.79947,-1.70428 -2.0618,-0.52151 -3.23175,-0.70522 -3.40267,-0.5343 -0.44566,0.44566 -0.98731,3.26561 -0.99164,5.16266 -0.007,3.04042 0.63183,3.87041 3.67153,4.77066 3.37574,0.99977 4.77316,2.56084 4.78519,5.34554 0.003,0.73974 0.0852,1.42435 0.1822,1.52136 0.097,0.097 0.92088,0.17639 1.83082,0.17639 h 1.65443 z m 28.18395,-0.19559 c 2.47826,-0.92724 2.41589,-0.81585 2.54164,-4.53903 l 0.11094,-3.28447 -0.63668,1.49688 c -0.98389,2.31318 -1.91641,3.76463 -3.56623,5.55078 -1.47321,1.59495 -1.49294,1.63587 -0.71446,1.48196 0.44032,-0.0871 1.45948,-0.40482 2.26479,-0.70612 z M 213.87752,164.0557 c -0.52273,-0.18374 -0.45188,-0.20316 0.33777,-0.0926 0.84534,0.11835 1.11101,0.0258 1.72498,-0.60102 0.65176,-0.66539 0.71602,-0.89519 0.63039,-2.25436 -0.0939,-1.48978 -0.11528,-1.5257 -1.36932,-2.29732 -1.56717,-0.96429 -1.98711,-2.12583 -1.09212,-3.02082 0.52294,-0.52294 0.66685,-0.53646 2.7398,-0.25738 1.20333,0.162 2.636,0.23249 3.18371,0.15665 1.24825,-0.17284 1.78229,0.24343 1.78229,1.38926 0,1.11241 -0.77131,1.74447 -3.05702,2.50511 l -1.70548,0.56755 v 1.14553 c 0,0.96472 0.13409,1.25836 0.84955,1.86038 0.76809,0.64631 0.98592,0.69882 2.27175,0.5477 0.78221,-0.0919 1.78019,-0.35228 2.21775,-0.57855 0.43755,-0.22627 0.86174,-0.3452 0.94264,-0.26429 0.34315,0.34314 -2.25847,1.20352 -3.65588,1.20902 -1.23819,0.005 -1.57571,-0.10114 -2.10056,-0.65982 l -0.62533,-0.66563 -0.7288,0.79792 c -0.74842,0.81941 -1.1955,0.91711 -2.34612,0.51268 z m 7.11344,-5.84264 c 0.60883,-0.38023 0.77319,-1.64631 0.25526,-1.9664 -0.50805,-0.314 -6.39978,-0.36297 -6.76933,-0.0563 -0.71707,0.59512 -0.36165,1.44157 1.04627,2.4918 l 1.38106,1.03018 1.76363,-0.57496 c 0.97,-0.31622 2.01539,-0.73218 2.32311,-0.92435 z m 2.84615,-1.0206 c -2.46961,-0.74899 -3.46042,-4.35053 -1.91999,-6.97906 0.68252,-1.16464 2.37078,-2.27662 3.45647,-2.27662 1.63785,0 4.6599,1.91438 4.63414,2.93559 -0.005,0.21011 -0.15159,0.11577 -0.33649,-0.21699 -0.46637,-0.83928 -1.979,-1.88927 -3.19244,-2.21602 -2.43039,-0.65443 -4.67271,1.29026 -4.8632,4.2177 -0.21594,3.31836 1.99347,4.8728 5.45877,3.84055 0.23606,-0.0703 0.13154,0.0442 -0.23226,0.25454 -0.92642,0.53555 -2.11617,0.70988 -3.005,0.44031 z m -13.293,-1.55552 c -0.82093,-0.5006 -1.69367,-2.16023 -1.69367,-3.22074 0,-1.20481 1.56766,-3.37699 2.96342,-4.10617 1.54369,-0.80646 4.44491,-0.24403 4.44491,0.86169 0,0.31268 -0.11092,0.27546 -0.46302,-0.15534 -1.10898,-1.35688 -4.0545,-0.73633 -5.49992,1.15871 -0.57048,0.74794 -0.75061,1.28016 -0.76505,2.2605 -0.0249,1.69118 0.67179,2.63476 2.3839,3.22867 1.29006,0.44751 1.29332,0.45153 0.37534,0.46203 -0.50932,0.006 -1.29498,-0.21438 -1.74591,-0.48935 z m 14.49883,-2.46141 c -0.45008,-0.45008 -0.39333,-1.42096 0.11264,-1.92692 0.57811,-0.57812 1.84661,-0.4342 1.74026,0.19744 -0.0432,0.25661 0.10562,0.53724 0.33073,0.62362 0.51985,0.19948 0.51802,0.48307 -0.006,1.00759 -0.49204,0.49203 -1.72762,0.5478 -2.17715,0.0983 z m -12.1576,-0.3869 c -0.58556,-0.23627 -0.38881,-1.6266 0.29344,-2.07363 0.65153,-0.42689 1.61534,-0.28063 1.31826,0.20006 -0.0942,0.15235 0.035,0.42777 0.28702,0.61205 0.36945,0.27015 0.4011,0.44175 0.1634,0.8859 -0.28418,0.531 -1.24385,0.7058 -2.06212,0.37562 z"
         id="path3587" />
      <path
         style="fill:#ed6700;stroke-width:0.264583"
         d="m 224.06398,215.43055 c -2.26576,-0.60095 -3.92784,-1.74808 -4.7531,-3.2805 -0.48841,-0.90693 -0.51707,-0.91841 -2.765,-1.10743 -1.24932,-0.10505 -2.74773,-0.33308 -3.32982,-0.50673 -0.90096,-0.26877 -1.50995,-0.22461 -4.0955,0.29698 -2.82176,0.56924 -3.11263,0.68656 -4.10104,1.65411 -1.93583,1.89497 -3.76542,2.27741 -6.32092,1.32127 -2.35033,-0.87937 -4.0703,-3.07037 -5.08727,-6.48048 -0.71586,-2.40041 -0.64395,-7.3732 0.13939,-9.63923 1.00252,-2.90006 2.32175,-4.6988 4.471,-6.09607 0.53041,-0.34483 0.57489,-0.49328 0.33603,-1.12153 -0.79284,-2.08532 -0.56157,-6.62793 0.48971,-9.61902 0.8295,-2.36007 2.85413,-5.34631 5.29544,-7.81056 2.56979,-2.59393 4.47651,-3.7952 6.73458,-4.24292 l 1.56558,-0.31041 -1.39744,-0.61673 c -0.7686,-0.3392 -2.14567,-1.15065 -3.06016,-1.80322 -3.56203,-2.54181 -5.0192,-5.70283 -4.36152,-9.46137 0.45489,-2.59964 4.30704,-10.00046 6.38438,-12.26581 0.50314,-0.54867 0.49718,-0.57212 -0.73211,-2.88295 -1.06114,-1.99473 -1.25686,-2.60223 -1.36096,-4.22426 -0.10073,-1.56972 -0.0249,-2.08401 0.4425,-3.00015 1.57522,-3.08769 4.97059,-2.62647 7.3953,1.00457 1.01134,1.51449 1.01164,1.51469 1.75673,1.1243 1.2034,-0.63053 4.38883,-1.66779 5.91111,-1.92481 0.86214,-0.14557 1.94037,-0.13946 2.77812,0.0157 1.75129,0.32443 4.75012,1.79484 6.20649,3.04322 l 1.13318,0.97135 1.28083,-1.19807 c 2.21038,-2.06755 4.5853,-2.28785 6.28971,-0.58344 0.77258,0.77258 0.87872,1.04688 0.87872,2.27098 0,1.99859 -0.73956,4.08084 -1.92958,5.43277 l -1.02187,1.1609 0.9184,1.5236 c 2.11999,3.51701 3.68741,8.33759 3.72472,11.45535 0.0209,1.74743 -0.0839,2.21323 -0.84708,3.76339 -0.91073,1.84997 -2.01638,2.93911 -4.34696,4.28206 -1.96789,1.13396 -2.05568,0.64704 -0.1117,-0.61951 3.20187,-2.0861 4.42596,-3.88678 4.61417,-6.7876 0.21128,-3.25635 -1.41365,-8.19868 -4.18188,-12.71948 -1.45036,-2.36858 -1.51269,-2.53947 -0.88495,-2.42628 0.62165,0.11208 1.49312,-1.70733 1.63453,-3.41247 0.18765,-2.26281 -0.84973,-2.97809 -3.01006,-2.07544 -0.51004,0.2131 -0.86217,0.28201 -0.78252,0.15313 0.0797,-0.12889 0.68565,-0.44088 1.34665,-0.69332 1.16623,-0.44539 1.22288,-0.44325 1.91331,0.0722 1.35347,1.01051 1.43612,3.63813 0.17299,5.49947 -0.87228,1.28537 -0.81529,1.45258 0.17638,0.5175 1.52661,-1.4395 2.464,-4.65043 1.81502,-6.21719 -0.90188,-2.17734 -4.27399,-2.04344 -6.45897,0.25648 -0.42741,0.44988 -0.9351,0.81798 -1.12822,0.81798 -0.19311,0 -1.03201,-0.5546 -1.86422,-1.23245 -1.73702,-1.41482 -3.5262,-2.27351 -5.6602,-2.71653 -1.21632,-0.25251 -1.80628,-0.23659 -3.19863,0.0863 -1.91425,0.44395 -5.22974,1.6389 -5.61434,2.0235 -0.30939,0.30939 -1.20416,0.33349 -1.20416,0.0324 0,-0.61546 -1.83465,-2.85959 -2.87957,-3.52225 -1.53344,-0.97248 -2.50009,-0.97373 -3.46932,-0.005 -1.02209,1.02208 -1.39406,2.51069 -1.06326,4.25502 0.41626,2.19491 0.66528,2.25322 0.66528,0.15578 0,-1.69271 0.0828,-2.0319 0.64143,-2.62716 1.11266,-1.18563 3.08736,-0.74112 4.29206,0.96616 l 0.60958,0.86388 -0.88502,-0.73721 c -1.47531,-1.22891 -2.28775,-1.55569 -3.02856,-1.21815 -1.40325,0.63936 -1.62407,2.95634 -0.53986,5.66464 0.57596,1.43873 0.77669,1.70384 1.19062,1.57246 0.72314,-0.22952 0.62142,0.0516 -0.51679,1.42842 -2.33107,2.81969 -5.38098,8.07351 -6.39105,11.0093 -0.78428,2.27957 -0.72577,4.93842 0.14724,6.69032 1.41244,2.83439 4.90374,5.26246 10.0366,6.98006 2.63505,0.88176 2.66631,0.88534 7.67291,0.87804 4.46626,-0.007 5.41081,-0.0889 8.46667,-0.73833 1.89177,-0.40204 3.86208,-0.89331 4.37847,-1.09169 1.46161,-0.56153 3.79545,0.15925 5.80816,1.79378 3.13724,2.54777 5.30086,6.25092 6.52654,11.17052 0.64238,2.57836 0.7219,3.38402 0.71713,7.26555 -0.008,6.35458 -1.0313,10.7267 -3.49519,14.93068 -1.47729,2.52061 -3.03854,3.88856 -6.15659,5.39431 -1.55001,0.74853 -3.90674,2.20403 -5.39727,3.33333 -4.44053,3.36435 -7.21579,4.49584 -9.525,3.88337 z m 1.5727,-2.49971 c 0.94159,-0.94159 1.33223,-3.19793 1.33515,-7.71177 0.002,-3.61783 -0.0532,-4.09211 -0.62795,-5.36392 -1.51945,-3.3621 -4.01193,-3.5814 -5.66072,-0.49805 -0.53934,1.0086 -0.58793,1.46027 -0.58793,5.46509 0,4.25818 0.0184,4.40321 0.74977,5.8925 1.25284,2.55139 3.44334,3.56449 4.79168,2.21615 z m -24.4505,-1.89542 c 0.42688,-0.22074 0.96739,-0.77121 1.20116,-1.22325 0.5089,-0.98412 0.88984,-4.58572 0.89968,-8.50625 0.006,-2.36094 -0.0862,-3.03787 -0.53267,-3.91298 -0.73808,-1.44675 -1.92394,-2.15669 -3.35895,-2.01089 -2.38609,0.24244 -3.30448,1.65809 -3.79969,5.85702 -0.38315,3.24875 -0.21576,5.4376 0.55237,7.22317 1.11972,2.60286 3.06219,3.59497 5.0381,2.57318 z m 31.60905,-9.8108 c 2.65922,-0.61349 6.31799,-3.24507 9.97917,-7.17754 2.32607,-2.49844 3.61635,-4.65872 4.46144,-7.46973 0.55089,-1.83243 0.56931,-2.11479 0.25859,-3.96401 -0.85615,-5.09524 -2.37094,-8.21007 -5.55799,-11.42878 -2.47888,-2.5035 -3.22758,-2.87077 -5.85774,-2.87339 -2.23408,-0.002 -5.33151,0.89389 -8.63392,2.49788 -2.35056,1.14168 -3.419,1.50374 -5.12802,1.73774 -2.79013,0.38202 -3.86648,0.18283 -6.50701,-1.20421 -2.21813,-1.16514 -2.37184,-1.4817 -0.87389,-1.79968 0.3638,-0.0772 -0.1556,-0.0777 -1.15421,-0.001 -1.68908,0.12959 -1.98362,0.2529 -4.22464,1.7687 -2.64173,1.78684 -5.12,4.17134 -6.18087,5.947 -0.37545,0.62844 -1.10828,2.23578 -1.62851,3.57188 -0.88564,2.27457 -0.94646,2.62305 -0.95515,5.47198 -0.0129,4.22166 0.0502,4.38597 1.77047,4.6108 1.73265,0.22645 2.74851,0.90327 3.95832,2.63721 0.87875,1.25941 1.8,3.42688 1.8,4.23488 0,0.19357 0.25187,0.67214 0.5597,1.06349 1.29093,1.64115 2.44828,0.14996 2.93186,-3.77756 0.25906,-2.10409 0.24155,-2.46758 -0.14746,-3.06128 -0.47716,-0.72825 -1.79398,-1.48003 -3.47639,-1.98469 -3.48118,-1.04423 -4.23906,-2.04468 -4.22327,-5.57498 0.0144,-3.22712 0.64631,-5.01331 2.35248,-6.64998 0.73789,-0.70784 1.49419,-1.2871 1.68066,-1.28725 0.75413,-5.3e-4 0.73,1.45828 -0.0416,2.5132 -0.34041,0.46542 -0.48595,0.49174 -1.2093,0.21871 -0.73721,-0.27827 -0.85992,-0.25088 -1.1857,0.26465 -0.95007,1.50345 -1.25933,6.18301 -0.51261,7.75661 0.47968,1.01085 1.12961,1.42108 3.24311,2.04702 2.01048,0.59543 3.65418,1.62782 4.17426,2.62181 0.2445,0.46728 0.51305,1.62351 0.59679,2.56939 l 0.15224,1.7198 1.76085,0.0777 1.76085,0.0777 0.46007,-1.38514 c 0.67992,-2.04705 2.36148,-3.59895 5.04274,-4.65392 2.64875,-1.04217 3.58301,-1.25352 7.87108,-1.78059 6.17255,-0.75869 10.01757,-2.55183 11.64903,-5.43255 0.74523,-1.31588 0.82372,-1.67053 0.8198,-3.70417 -0.004,-1.83096 -0.11417,-2.44493 -0.59531,-3.30337 -0.66666,-1.18943 -0.73491,-1.73853 -0.27348,-2.19996 0.68326,-0.68326 1.28691,-0.34511 1.91361,1.07198 1.39784,3.16077 1.51291,6.47379 0.31393,9.03884 -0.63866,1.36633 -2.44071,3.62816 -3.78811,4.75462 -2.16202,1.80749 -5.73561,2.80873 -10.0249,2.80873 -3.80966,0 -6.8811,0.42498 -7.98613,1.105 -0.7841,0.48253 -2.17715,2.02316 -2.17715,2.40781 0,0.0856 0.60728,-0.2531 1.3495,-0.75258 1.0626,-0.71508 1.61104,-0.90691 2.57969,-0.90234 3.09517,0.0146 5.68586,2.3873 6.64307,6.08404 0.54367,2.09962 0.56426,2.13987 1.0246,2.00356 0.24292,-0.0719 0.79887,-0.21318 1.23543,-0.3139 z m 13.14031,-6.66166 c 1.71504,-0.77763 1.72832,-0.79193 1.90017,-2.04574 0.0952,-0.69445 0.17024,-2.22828 0.16678,-3.40852 l -0.006,-2.14588 -0.6157,1.49688 c -0.93215,2.26626 -1.87558,3.74322 -3.54524,5.55016 l -1.51504,1.63961 0.9441,-0.1517 c 0.51925,-0.0834 1.7213,-0.5041 2.67121,-0.93481 z m -27.29552,-0.0907 c 0,-0.14553 -0.11906,-0.191 -0.26458,-0.10107 -0.14552,0.0899 -0.26458,0.28259 -0.26458,0.42811 0,0.14552 0.11906,0.191 0.26458,0.10106 0.14552,-0.0899 0.26458,-0.28258 0.26458,-0.4281 z m -17.99166,-3.89505 c 0,-0.12217 -0.29766,-0.35774 -0.66146,-0.5235 -0.52258,-0.2381 -0.66146,-0.2285 -0.66146,0.0457 0,0.19091 0.0794,0.42649 0.17639,0.5235 0.25341,0.25341 1.14653,0.21779 1.14653,-0.0457 z m 20.37291,-19.88626 c 0,-0.14553 -0.29063,-0.26459 -0.64584,-0.26459 -0.35521,0 -0.71943,0.11906 -0.80937,0.26459 -0.0954,0.15436 0.17364,0.26458 0.64585,0.26458 0.44515,0 0.80936,-0.11906 0.80936,-0.26458 z m -7.14375,-6.63525 c -0.52273,-0.18374 -0.45188,-0.20316 0.33777,-0.0926 0.84534,0.11835 1.11101,0.0258 1.72498,-0.60102 0.65176,-0.66539 0.71602,-0.89519 0.63039,-2.25436 -0.0938,-1.488 -0.11662,-1.52653 -1.3596,-2.29134 -1.4821,-0.91194 -1.86355,-1.83613 -1.18517,-2.87147 0.42243,-0.64471 0.49608,-0.65966 2.19489,-0.44556 0.96678,0.12185 2.45827,0.19512 3.31442,0.16283 1.81966,-0.0686 2.27982,0.21716 2.27982,1.41593 0,1.11241 -0.77131,1.74447 -3.05702,2.50511 l -1.70548,0.56755 v 1.14553 c 0,0.96472 0.13409,1.25836 0.84955,1.86038 0.76809,0.64631 0.98592,0.69882 2.27175,0.5477 0.78221,-0.0919 1.78019,-0.35228 2.21775,-0.57855 0.43755,-0.22627 0.86174,-0.3452 0.94264,-0.26429 0.34315,0.34314 -2.25847,1.20352 -3.65588,1.20902 -1.23819,0.005 -1.57571,-0.10114 -2.10056,-0.65982 l -0.62533,-0.66563 -0.7288,0.79792 c -0.74842,0.81941 -1.1955,0.91711 -2.34612,0.51268 z m 7.12163,-5.84775 c 0.60312,-0.37666 0.76038,-1.64405 0.24363,-1.96342 -0.52372,-0.32368 -6.37593,-0.37777 -6.75587,-0.0625 -0.72744,0.60372 -0.37765,1.44528 1.04426,2.51231 l 1.38906,1.04239 1.76381,-0.59227 c 0.9701,-0.32575 2.01189,-0.74721 2.31511,-0.93656 z m 1.77231,-1.56328 c -1.69632,-1.33433 -2.0927,-4.31818 -0.85434,-6.43127 0.68252,-1.16464 2.37078,-2.27662 3.45647,-2.27662 1.63785,0 4.6599,1.91438 4.63414,2.93559 -0.005,0.21011 -0.15159,0.11577 -0.33649,-0.21699 -0.46637,-0.83928 -1.979,-1.88927 -3.19244,-2.21602 -2.43039,-0.65443 -4.67271,1.29026 -4.8632,4.2177 -0.21588,3.31746 2.00507,4.87944 5.45877,3.83912 0.23606,-0.0711 0.13154,0.0533 -0.23226,0.27649 -1.00129,0.61424 -3.21555,0.54462 -4.07065,-0.128 z m -12.45292,-1.32373 c -1.16944,-1.02678 -1.63044,-2.51869 -1.19034,-3.8522 0.36909,-1.11836 1.63755,-2.6205 2.65879,-3.1486 1.57423,-0.81406 4.47178,-0.26227 4.47178,0.85158 0,0.31268 -0.11092,0.27546 -0.46302,-0.15534 -1.10898,-1.35688 -4.0545,-0.73633 -5.49992,1.15871 -0.57048,0.74794 -0.75061,1.28016 -0.76505,2.2605 -0.0249,1.69118 0.67179,2.63476 2.3839,3.22867 l 1.30138,0.45144 -0.98298,0.0116 c -0.73163,0.009 -1.22117,-0.19756 -1.91454,-0.80634 z m 14.7244,-2.14541 c -0.45008,-0.45008 -0.39333,-1.42096 0.11264,-1.92692 0.57811,-0.57812 1.84661,-0.4342 1.74026,0.19744 -0.0432,0.25661 0.10562,0.53724 0.33073,0.62362 0.51985,0.19948 0.51802,0.48307 -0.006,1.00759 -0.49204,0.49203 -1.72762,0.5478 -2.17715,0.0983 z m -12.1576,-0.3869 c -0.58556,-0.23627 -0.38881,-1.6266 0.29344,-2.07363 0.65153,-0.42689 1.61534,-0.28063 1.31826,0.20006 -0.0942,0.15235 0.035,0.42777 0.28702,0.61205 0.36945,0.27015 0.4011,0.44175 0.1634,0.8859 -0.28418,0.531 -1.24385,0.7058 -2.06212,0.37562 z"
         id="path3585" />
      <path
         style="fill:#000000;fill-opacity:1;stroke-width:0.264583"
         d="m 236.56113,138.37895 c 0.17948,-0.18082 0.39297,-0.26212 0.47443,-0.18066 0.0815,0.0815 -0.0654,0.22941 -0.32631,0.32877 -0.37709,0.14359 -0.40748,0.11319 -0.14812,-0.14811 z"
         id="path8244" />
      <path
         style="fill:#000000;fill-opacity:1;stroke-width:0.264583"
         d="m 212.88534,152.78863 c -0.58556,-0.23627 -0.38881,-1.6266 0.29344,-2.07363 0.65153,-0.42689 1.61534,-0.28063 1.31826,0.20006 -0.0942,0.15235 0.035,0.42777 0.28702,0.61205 0.36945,0.27015 0.4011,0.44175 0.1634,0.8859 -0.28418,0.531 -1.24385,0.7058 -2.06212,0.37562 z"
         id="path8242" />
      <path
         style="fill:#000000;fill-opacity:1;stroke-width:0.264583"
         d="m 225.04294,153.17553 c -0.45008,-0.45008 -0.39333,-1.42096 0.11264,-1.92692 0.57811,-0.57812 1.84661,-0.4342 1.74026,0.19744 -0.0432,0.25661 0.10562,0.53724 0.33073,0.62362 0.51985,0.19948 0.51802,0.48307 -0.006,1.00759 -0.49204,0.49203 -1.72762,0.5478 -2.17715,0.0983 z"
         id="path8240" />
      <path
         style="fill:#000000;fill-opacity:1;stroke-width:0.264583"
         d="m 210.78151,155.62041 c -1.07018,-0.65253 -1.66649,-1.79397 -1.66649,-3.18997 0,-1.23755 0.29395,-1.92069 1.2891,-2.99593 1.00056,-1.08107 1.9468,-1.49773 3.40139,-1.49773 1.36278,0 2.45326,0.54893 2.45326,1.23494 0,0.31268 -0.11092,0.27546 -0.46302,-0.15534 -1.10898,-1.35688 -4.0545,-0.73633 -5.49992,1.15871 -0.57048,0.74794 -0.75061,1.28016 -0.76505,2.2605 -0.0239,1.62291 0.66923,2.61343 2.25734,3.22586 0.91786,0.35396 1.02377,0.45146 0.5019,0.46203 -0.3638,0.007 -1.04263,-0.21901 -1.50851,-0.50307 z"
         id="path8238" />
      <path
         style="fill:#000000;fill-opacity:1;stroke-width:0.264583"
         d="m 222.95235,156.67874 c -1.17675,-0.71751 -1.71941,-1.90124 -1.71941,-3.75066 0,-2.06218 0.90382,-3.65726 2.51396,-4.43672 1.32672,-0.64225 1.71889,-0.67109 3.17866,-0.23373 1.14499,0.34304 3.09769,1.99961 3.08217,2.61474 -0.005,0.21011 -0.15159,0.11577 -0.33649,-0.21699 -0.46637,-0.83928 -1.979,-1.88927 -3.19244,-2.21602 -2.43039,-0.65443 -4.67271,1.29026 -4.8632,4.2177 -0.17776,2.73167 1.43052,4.44519 3.90359,4.15902 0.8367,-0.0968 1.03333,-0.0662 0.66146,0.10307 -0.89739,0.40845 -2.34038,0.30099 -3.2283,-0.24041 z"
         id="path8236" />
      <path
         style="fill:#000000;fill-opacity:1;stroke-width:0.264583"
         d="m 213.87752,164.0557 c -0.52273,-0.18374 -0.45188,-0.20316 0.33777,-0.0926 0.84534,0.11835 1.11101,0.0258 1.72498,-0.60102 0.65293,-0.66658 0.71611,-0.89388 0.62973,-2.26558 -0.094,-1.49228 -0.12121,-1.53944 -1.28267,-2.2201 -1.37292,-0.80458 -1.80416,-1.63406 -1.3583,-2.61263 0.39668,-0.87061 1.16171,-1.03675 3.18606,-0.69193 0.91147,0.15526 2.1621,0.21177 2.77917,0.12558 1.12929,-0.15773 1.92999,0.17914 1.91235,0.80458 -0.005,0.16408 -0.17553,0.0777 -0.37977,-0.19187 -0.30602,-0.40394 -0.59552,-0.46197 -1.64524,-0.32979 -0.70063,0.0882 -1.98824,0.056 -2.86137,-0.0715 -2.0544,-0.30013 -2.77812,-0.0373 -2.77812,1.00889 0,0.64965 0.25203,0.97814 1.40266,1.82816 l 1.40266,1.0362 1.81347,-0.58759 c 0.99742,-0.32318 2.09262,-0.83624 2.4338,-1.14014 0.34118,-0.30389 0.62032,-0.45112 0.62032,-0.32717 0,0.4555 -1.39677,1.30353 -3.05702,1.85603 l -1.70548,0.56755 v 1.14553 c 0,0.96472 0.13409,1.25836 0.84955,1.86038 0.76809,0.64631 0.98592,0.69882 2.27175,0.5477 0.78221,-0.0919 1.78019,-0.35228 2.21775,-0.57855 0.43755,-0.22627 0.86174,-0.3452 0.94264,-0.26429 0.34315,0.34314 -2.25847,1.20352 -3.65588,1.20902 -1.23819,0.005 -1.57571,-0.10114 -2.10056,-0.65982 l -0.62533,-0.66563 -0.7288,0.79792 c -0.74842,0.81941 -1.1955,0.91711 -2.34612,0.51268 z"
         id="path8234" />
      <path
         style="fill:#000000;fill-opacity:1;stroke:#000000;stroke-width:0.264583;stroke-opacity:1"
         d="m 224.06398,215.43055 c -2.26576,-0.60095 -3.92784,-1.74808 -4.7531,-3.2805 -0.48841,-0.90693 -0.51707,-0.91841 -2.765,-1.10743 -1.24932,-0.10505 -2.74773,-0.33308 -3.32982,-0.50673 -0.90096,-0.26877 -1.50995,-0.22461 -4.0955,0.29698 -2.82176,0.56924 -3.11263,0.68656 -4.10104,1.65411 -1.93583,1.89497 -3.76542,2.27741 -6.32092,1.32127 -2.35033,-0.87937 -4.0703,-3.07037 -5.08727,-6.48048 -0.71586,-2.40041 -0.64395,-7.3732 0.13939,-9.63923 1.00252,-2.90006 2.32175,-4.6988 4.471,-6.09607 0.53041,-0.34483 0.57489,-0.49328 0.33603,-1.12153 -0.79284,-2.08532 -0.56157,-6.62793 0.48971,-9.61902 0.8295,-2.36007 2.85413,-5.34631 5.29544,-7.81056 2.56979,-2.59393 4.47651,-3.7952 6.73458,-4.24292 l 1.56558,-0.31041 -1.39744,-0.61673 c -0.7686,-0.3392 -2.14567,-1.15065 -3.06016,-1.80322 -3.56203,-2.54181 -5.0192,-5.70283 -4.36152,-9.46137 0.45489,-2.59964 4.30704,-10.00046 6.38438,-12.26581 0.50314,-0.54867 0.49718,-0.57212 -0.73211,-2.88295 -1.06114,-1.99473 -1.25686,-2.60223 -1.36096,-4.22426 -0.10073,-1.56972 -0.0249,-2.08401 0.4425,-3.00015 1.57522,-3.08769 4.97059,-2.62647 7.3953,1.00457 1.01134,1.51449 1.01164,1.51469 1.75673,1.1243 1.2034,-0.63053 4.38883,-1.66779 5.91111,-1.92481 0.86214,-0.14557 1.94037,-0.13946 2.77812,0.0157 1.75129,0.32443 4.75012,1.79484 6.20649,3.04322 l 1.13318,0.97135 1.28083,-1.19807 c 2.21038,-2.06755 4.5853,-2.28785 6.28971,-0.58344 0.77258,0.77258 0.87872,1.04688 0.87872,2.27098 0,1.99859 -0.73956,4.08084 -1.92958,5.43277 l -1.02187,1.1609 0.9184,1.5236 c 2.11999,3.51701 3.68741,8.33759 3.72472,11.45535 0.0209,1.74743 -0.0839,2.21323 -0.84708,3.76339 -0.91073,1.84997 -2.01638,2.93911 -4.34696,4.28206 -0.91541,0.52749 -2.65761,1.63614 -2.50606,1.28706 0.0569,-0.13111 1.35467,-1.22918 2.39436,-1.90657 3.20187,-2.0861 4.42596,-3.88678 4.61417,-6.7876 0.21128,-3.25635 -1.41365,-8.19868 -4.18188,-12.71948 -0.72388,-1.18216 -1.31614,-2.22918 -1.31614,-2.3267 0,-0.0975 0.19597,-0.14234 0.43548,-0.0996 0.6958,0.12422 1.68197,-1.99372 1.67714,-3.60189 -0.005,-1.69791 -0.22317,-2.03315 -1.48975,-2.29025 l -1.01974,-0.207 1.05833,0.0457 c 0.95166,0.0411 1.1095,0.15055 1.56596,1.08567 0.44665,0.91503 0.47137,1.21278 0.20579,2.47893 -0.166,0.79144 -0.60327,1.83419 -0.9717,2.31723 -0.87849,1.15176 -0.40149,1.43075 0.5406,0.31618 1.04095,-1.23155 1.73845,-2.95312 1.89086,-4.66706 0.1108,-1.24605 0.04,-1.60135 -0.43943,-2.20644 -1.31043,-1.65376 -3.76683,-1.45209 -5.83103,0.47873 -0.68709,0.64269 -1.38742,1.16854 -1.55629,1.16854 -0.16887,0 -0.98793,-0.5546 -1.82014,-1.23245 -1.73702,-1.41482 -3.5262,-2.27351 -5.6602,-2.71653 -1.21632,-0.25251 -1.80628,-0.23659 -3.19863,0.0863 -1.91425,0.44395 -5.22974,1.6389 -5.61434,2.0235 -0.48939,0.48939 -0.87529,0.23564 -1.83124,-1.20413 -1.98751,-2.9934 -4.20922,-3.815 -5.85793,-2.16629 -1.51053,1.51053 -1.45012,4.21913 0.1647,7.38443 0.71494,1.40139 0.85148,1.24795 0.21363,-0.24008 -0.71507,-1.66821 -0.90168,-3.25515 -0.51908,-4.41443 0.76004,-2.30296 3.03959,-2.31626 4.81817,-0.0281 0.54996,0.70754 0.49191,0.6857 -0.56881,-0.214 -1.44543,-1.22602 -2.18441,-1.44 -3.03909,-0.87999 -1.36744,0.89597 -1.40087,3.406 -0.0815,6.12158 0.43813,0.90179 0.71093,1.18303 1.0592,1.09196 0.66524,-0.17397 0.59849,-0.005 -0.54558,1.37857 -2.33107,2.81969 -5.38098,8.07351 -6.39105,11.0093 -0.78428,2.27957 -0.72577,4.93842 0.14724,6.69032 1.42035,2.85028 4.96727,5.30774 10.0366,6.95383 2.17172,0.70518 3.21476,0.88483 5.82083,1.00255 2.06219,0.0932 2.8968,0.20798 2.38125,0.32764 -1.4937,0.34667 -4.01598,0.24693 -5.97695,-0.23636 -2.94788,-0.72652 -6.17456,-0.45376 -8.56735,0.7242 -3.30646,1.62776 -7.6059,6.64192 -9.09499,10.6069 -0.77364,2.05996 -1.09861,7.04454 -0.58351,8.95029 0.30905,1.1434 0.31097,1.14483 1.3185,0.9746 0.66502,-0.11235 1.34718,-0.0292 2.00095,0.24399 1.14944,0.48027 1.27655,0.50091 1.07485,0.17455 -0.38031,-0.61536 1.1026,0.16713 1.98054,1.04507 1.26072,1.26072 2.08339,3.45906 2.28816,6.11439 0.16001,2.075 0.16058,2.07628 0.92314,2.07628 2.329,0 3.67,-1.61853 3.86555,-4.66557 0.23121,-3.60288 -0.88321,-5.04357 -4.8048,-6.21147 -2.99872,-0.89305 -3.76376,-2.20215 -3.54359,-6.06361 0.0987,-1.73089 0.30588,-2.68602 0.83187,-3.83494 0.38525,-0.84149 0.76705,-1.46339 0.84845,-1.382 0.0814,0.0814 -0.0249,0.48649 -0.23622,0.90019 -0.99814,1.95415 -1.29976,6.34357 -0.54517,7.93376 0.47968,1.01085 1.12961,1.42108 3.24311,2.04702 3.62452,1.07345 4.76478,2.50526 4.81806,6.04999 0.0337,2.2436 -0.52854,3.85426 -1.73223,4.96205 -0.58215,0.53577 -0.99116,0.66146 -2.1526,0.66146 -1.23672,0 -1.43389,0.0697 -1.43389,0.50711 0,1.14562 -0.24089,0.11467 -0.6321,-2.7053 -0.22829,-1.64556 -0.63852,-3.49708 -0.91163,-4.11448 -0.52792,-1.19345 -2.04272,-3.08004 -2.47305,-3.08004 -0.14179,0 0.17089,0.50081 0.69483,1.11292 1.10907,1.2957 1.73445,3.15924 1.73445,5.16842 0,1.89743 -0.41406,1.55976 -0.63856,-0.52073 -0.62769,-5.81707 -5.10362,-7.60506 -8.84326,-3.53259 -2.01347,2.19267 -2.9536,5.07574 -2.9536,9.05775 0,6.27344 2.9712,10.6634 7.22303,10.67206 1.5105,0.003 2.62496,-0.52184 3.90931,-1.84128 0.88076,-0.90482 1.15839,-1.01174 4.03218,-1.5528 2.47304,-0.46562 3.31026,-0.52674 4.21349,-0.30763 0.61996,0.15039 2.05735,0.36866 3.1942,0.48503 l 2.06699,0.21158 -0.17344,-0.67897 c -0.94346,-3.69323 -1.11087,-5.80665 -0.65174,-8.22761 0.21771,-1.14801 0.19114,-1.51756 -0.14616,-2.03234 -0.6713,-1.02453 -0.77721,-2.99368 -0.24689,-4.59033 0.68817,-2.07187 2.3569,-3.61722 5.05041,-4.67701 2.64875,-1.04217 3.58301,-1.25352 7.87108,-1.78059 8.16592,-1.0037 12.2014,-3.75917 12.53825,-8.56124 0.0952,-1.35752 -0.005,-2.13124 -0.43362,-3.34443 -0.60862,-1.72302 -0.65765,-1.9949 -0.35907,-1.99085 0.4567,0.006 1.19335,2.38847 1.31856,4.26414 0.18301,2.74135 -0.3791,4.41005 -2.04757,6.07852 -2.27629,2.27629 -5.39985,3.43898 -11.33294,4.21849 -6.97532,0.91645 -10.19605,2.39776 -11.75992,5.40873 -0.59874,1.15276 -0.7515,3.37254 -0.2883,4.18901 0.23459,0.41349 0.39299,0.23784 1.12332,-1.24567 0.95111,-1.93198 2.5182,-3.45232 4.02325,-3.90324 2.56901,-0.7697 5.34539,1.79121 5.92078,5.46128 0.15707,1.00183 0.13068,0.97628 -0.49436,-0.47861 -0.96587,-2.24825 -1.65957,-3.26343 -2.64697,-3.87367 -1.19264,-0.7371 -2.46828,-0.68872 -3.74974,0.14218 -1.26966,0.82327 -2.04747,1.90849 -2.96154,4.13205 -0.82576,2.00874 -1.09838,5.91709 -0.59219,8.48997 0.41355,2.10204 1.57668,4.62287 2.54964,5.52578 1.00067,0.92862 3.27459,1.80501 4.68336,1.80501 1.60311,0 4.26677,-1.3645 7.72181,-3.95561 1.67288,-1.25458 4.04594,-2.72701 5.58094,-3.46285 3.04087,-1.45771 4.6608,-2.97602 6.14379,-5.7584 1.74817,-3.27991 2.96437,-8.40065 2.95336,-12.43501 l -0.006,-2.30167 -0.6157,1.49688 c -0.97736,2.37617 -1.86444,3.71502 -4.02953,6.08167 -2.41914,2.64437 -4.46615,4.43078 -6.50223,5.67445 -1.65386,1.0102 -4.16822,1.96054 -5.1871,1.96054 -0.60603,0 -0.6428,0.0726 -0.5028,0.99219 0.0831,0.5457 0.21322,1.88515 0.2892,2.97656 0.1519,2.18201 0.15267,2.18489 -0.77759,-2.91042 -0.59733,-3.27173 -1.31655,-5.51775 -2.22404,-6.94531 -1.0378,-1.63255 -0.58697,-1.6428 0.49374,-0.0112 0.75711,1.14303 1.87069,4.11943 1.87069,5.00004 0,0.48102 0.63484,0.46601 2.39937,-0.0568 2.80481,-0.83094 5.65589,-2.87689 9.24229,-6.63232 2.47006,-2.58646 3.69214,-4.45145 4.6954,-7.16552 0.83634,-2.26253 0.82953,-3.93311 -0.0296,-7.26688 -0.84085,-3.26273 -2.43041,-6.32513 -4.39723,-8.47157 -2.22542,-2.42865 -3.40373,-3.16298 -5.65347,-3.5233 -1.70576,-0.27319 -1.82452,-0.33022 -1.21161,-0.58185 1.16755,-0.47934 3.69401,0.37497 5.53837,1.87278 3.13724,2.54778 5.30086,6.25093 6.52654,11.17052 0.64238,2.57836 0.7219,3.38403 0.71713,7.26556 -0.008,6.35458 -1.0313,10.72669 -3.49519,14.93067 -1.47729,2.52062 -3.03854,3.88856 -6.15659,5.39432 -1.55001,0.74853 -3.90674,2.20403 -5.39727,3.33332 -4.44053,3.36436 -7.21579,4.49584 -9.525,3.88337 z"
         id="path3583" />
    </g>
    <g
       inkscape:label="Layer 1"
       id="layer1-7"
       transform="matrix(0.56919696,0,0,0.56919696,18.983757,-22.719358)">
      <g
         id="g30381"
         transform="matrix(2.6213635,0,0,2.6213635,-206.32243,-372.67986)">
        <path
           style="fill:#ffdd00;fill-opacity:1;stroke:none;stroke-width:0.264583"
           d="m 117.03141,159.52951 c 1.34592,0.41429 0.55652,3.12442 0.34514,3.38617 -0.75067,0.92956 -2.2141,0.6428 -2.2141,0.6428 l -0.13396,2.39101 c 0,0 0.8168,-0.0335 0.9677,0.38569 0.24683,0.68571 0.36209,2.17394 -0.0618,3.12608 -0.12838,0.28837 -0.92084,0.6848 -0.92084,0.6848 0,0 0.005,4.0209 0.22748,5.16918 0.16927,0.87325 3.00866,1.12142 3.92809,0.33931 1.51289,-1.28693 -0.19523,-4.03656 1.0065,-5.46292 1.14644,-1.36049 4.31492,0.71926 4.92881,-1.6933 0.96283,-4.09333 -6.26813,-0.4276 -5.26747,-4.46462 0.49725,-2.01251 4.89903,-0.29188 6.52251,-1.41 1.15147,-0.79296 0.56092,-3.09565 -0.79217,-3.01544"
           id="path13265"
           sodipodi:nodetypes="csccsscssccccc" />
        <path
           style="fill:#ffb300;fill-opacity:1;stroke:none;stroke-width:0.264583"
           d="m 106.28191,159.57375 c 0,3.8172 0.69337,9.12424 0.0116,12.913 -0.21669,1.20491 -1.09851,2.4941 0.22649,3.40611 1.17751,0.81056 2.91307,0.17237 3.32145,-0.33195 0.82258,-1.01584 0.049,-4.68789 1.02901,-5.52161 1.26947,-1.07976 3.44857,0.3215 4.40922,-0.82427 0.5733,-0.68377 0.5154,-2.38063 0.0254,-2.6768 -1.44756,-0.87497 -4.95771,0.49096 -4.95771,-1.98671 0,-3.45593 5.24156,-0.37943 6.52585,-2.00241 0.77919,-0.98468 0.60399,-2.79924 -0.54267,-2.9857"
           id="path13263"
           sodipodi:nodetypes="cccscssssc" />
        <path
           style="fill:#ff8c00;fill-opacity:1;stroke:none;stroke-width:0.264583"
           d="m 92.597857,159.66142 c 1.038788,0.89604 1.166097,0.85569 2.030387,2.45003 0.722737,1.33321 0.577182,4.01895 0.216242,5.10429 -0.508789,1.52991 -1.66517,2.01556 -2.356893,2.59717 -0.408828,0.34375 -0.158126,1.24737 0.164789,2.28502 0.537429,1.72694 1.931645,3.33353 3.374556,3.80337 2.012585,0.65533 4.706662,0.0931 6.649202,-0.23858 4.2289,-0.72212 3.14845,-9.32853 3.14561,-15.05214 -6.5e-4,-1.30329 -3.51202,-1.32464 -3.53842,-0.18207 -0.0614,2.65537 0.2799,7.55727 -0.13417,10.18178 -0.26839,1.70074 -1.54123,2.60269 -3.288374,1.87508 -2.719256,-1.13268 -1.598931,-7.14613 -1.598931,-9.52156 0,-0.93138 0.11777,-2.84816 -0.607428,-3.28093"
           id="path13261"
           sodipodi:nodetypes="cssssscssccsc" />
        <path
           id="path4321"
           style="fill:#ff6600;fill-opacity:1;stroke:none;stroke-width:0.264583"
           d="m 82.692999,159.60547 c -0.623046,0.57081 -0.747643,13.06661 -0.316072,15.58222 0.279427,1.48511 2.231541,1.72256 3.487915,0.97935 1.841606,-1.08956 -0.04506,-4.5664 1.176291,-6.01897 1.6836,-0.83646 6.630688,0.55712 7.269313,-4.49218 0.677994,-5.36049 -3.004705,-6.21346 -7.222164,-6.21346 m 0.412836,3.41641 c 2.473219,-1.02196 4.85132,2.48298 2.076238,3.6127 -2.623661,1.06807 -4.586579,-2.57543 -2.076238,-3.6127 z"
           sodipodi:nodetypes="ccccscsss" />
      </g>
      <path
         style="fill:#000000;stroke-width:0.693569"
         id="path4175"
         d="" />
      <g
         id="g30657"
         transform="matrix(2.6213635,0,0,2.6213635,-206.32243,-375.32568)"
         style="fill:url(#linearGradient30705);fill-opacity:1">
        <path
           style="fill:url(#linearGradient1013);fill-opacity:1;stroke:none;stroke-width:0.264583"
           d="m 117.03141,159.52951 c 1.34592,0.41429 0.55652,3.12442 0.34514,3.38617 -0.75067,0.92956 -2.2141,0.6428 -2.2141,0.6428 l -0.13396,2.39101 c 0,0 0.8168,-0.0335 0.9677,0.38569 0.24683,0.68571 0.36209,2.17394 -0.0618,3.12608 -0.12838,0.28837 -0.92084,0.6848 -0.92084,0.6848 0,0 0.005,4.0209 0.22748,5.16918 0.16927,0.87325 3.00866,1.12142 3.92809,0.33931 1.51289,-1.28693 -0.19523,-4.03656 1.0065,-5.46292 1.14644,-1.36049 4.31492,0.71926 4.92881,-1.6933 0.96283,-4.09333 -6.26813,-0.4276 -5.26747,-4.46462 0.49725,-2.01251 4.89903,-0.29188 6.52251,-1.41 1.15147,-0.79296 0.56092,-3.09565 -0.79217,-3.01544"
           id="path30649"
           sodipodi:nodetypes="csccsscssccccc" />
        <path
           style="fill:url(#linearGradient1015);fill-opacity:1;stroke:none;stroke-width:0.264583"
           d="m 106.28191,159.57375 c 0,3.8172 0.69337,9.12424 0.0116,12.913 -0.21669,1.20491 -1.09851,2.4941 0.22649,3.40611 1.17751,0.81056 2.91307,0.17237 3.32145,-0.33195 0.82258,-1.01584 0.049,-4.68789 1.02901,-5.52161 1.26947,-1.07976 3.44857,0.3215 4.40922,-0.82427 0.5733,-0.68377 0.5154,-2.38063 0.0254,-2.6768 -1.44756,-0.87497 -4.95771,0.49096 -4.95771,-1.98671 0,-3.45593 5.24156,-0.37943 6.52585,-2.00241 0.77919,-0.98468 0.60399,-2.79924 -0.54267,-2.9857"
           id="path30651"
           sodipodi:nodetypes="cccscssssc" />
        <path
           style="fill:url(#linearGradient1017);fill-opacity:1;stroke:none;stroke-width:0.264583"
           d="m 92.597857,159.66142 c 1.038788,0.89604 1.166097,0.85569 2.030387,2.45003 0.722737,1.33321 0.577182,4.01895 0.216242,5.10429 -0.508789,1.52991 -1.66517,2.01556 -2.356893,2.59717 -0.408828,0.34375 -0.158126,1.24737 0.164789,2.28502 0.537429,1.72694 1.931645,3.33353 3.374556,3.80337 2.012585,0.65533 4.706662,0.0931 6.649202,-0.23858 4.2289,-0.72212 3.14845,-9.32853 3.14561,-15.05214 -6.5e-4,-1.30329 -3.51202,-1.32464 -3.53842,-0.18207 -0.0614,2.65537 0.2799,7.55727 -0.13417,10.18178 -0.26839,1.70074 -1.54123,2.60269 -3.288374,1.87508 -2.719256,-1.13268 -1.598931,-7.14613 -1.598931,-9.52156 0,-0.93138 0.11777,-2.84816 -0.607428,-3.28093"
           id="path30653"
           sodipodi:nodetypes="cssssscssccsc" />
        <path
           id="path30655"
           style="fill:url(#linearGradient1019);fill-opacity:1;stroke:none;stroke-width:0.264583"
           d="m 82.692999,159.60547 c -0.623046,0.57081 -0.747643,13.06661 -0.316072,15.58222 0.279427,1.48511 2.231541,1.72256 3.487915,0.97935 1.841606,-1.08956 -0.04506,-4.5664 1.176291,-6.01897 1.6836,-0.83646 6.630688,0.55712 7.269313,-4.49218 0.677994,-5.36049 -3.004705,-6.21346 -7.222164,-6.21346 m 0.412836,3.41641 c 2.473219,-1.02196 4.85132,2.48298 2.076238,3.6127 -2.623661,1.06807 -4.586579,-2.57543 -2.076238,-3.6127 z"
           sodipodi:nodetypes="ccccscsss" />
      </g>
      <path
         style="fill:url(#linearGradient30703);fill-opacity:1;stroke-width:0.693569"
         id="path30659"
         d="" />
    </g>
  </g>
</svg>
